<?xml version="1.0" encoding="utf-8"?>
<!-- Generator: Adobe Illustrator 17.0.0, SVG Export Plug-In . SVG Version: 6.00 Build 0)  -->
<!DOCTYPE svg PUBLIC "-//W3C//DTD SVG 1.1//EN" "http://www.w3.org/Graphics/SVG/1.1/DTD/svg11.dtd">
<svg version="1.1" id="Layer_1" xmlns="http://www.w3.org/2000/svg" xmlns:xlink="http://www.w3.org/1999/xlink" x="0px" y="0px"
	 width="104.31px" height="104.31px" viewBox="0 0 104.31 104.31" enable-background="new 0 0 104.31 104.31" xml:space="preserve">
<g>
	<polygon fill="#303036" points="18.563,30.248 26.207,37.892 37.892,26.207 30.248,18.563 39.651,9.159 3.48,3.48 9.159,39.651 	
		"/>
	<polygon fill="#303036" points="66.418,26.207 78.103,37.892 86.334,29.661 95.738,39.064 101.416,2.894 65.246,8.572 
		74.649,17.976 	"/>
	<polygon fill="#303036" points="37.892,78.103 26.207,66.418 17.976,74.649 8.572,65.246 2.894,101.416 39.064,95.738 
		29.661,86.334 	"/>
	<polygon fill="#303036" points="85.747,74.062 78.103,66.418 66.418,78.103 74.062,85.747 64.659,95.151 100.83,100.83 
		95.151,64.659 	"/>
</g>
</svg>
