<?xml version="1.0" encoding="utf-8"?>
<!-- Generator: Adobe Illustrator 17.0.0, SVG Export Plug-In . SVG Version: 6.00 Build 0)  -->
<!DOCTYPE svg PUBLIC "-//W3C//DTD SVG 1.1//EN" "http://www.w3.org/Graphics/SVG/1.1/DTD/svg11.dtd">
<svg version="1.1" id="Layer_2" xmlns="http://www.w3.org/2000/svg" xmlns:xlink="http://www.w3.org/1999/xlink" x="0px" y="0px"
	 width="104.31px" height="104.31px" viewBox="0 0 104.31 104.31" enable-background="new 0 0 104.31 104.31" xml:space="preserve">
<path fill="#303036" d="M24.082,21.75c0,0-1.25-21.25,22.375-21.125s22.75,21.125,22.75,21.125l-0.75,5.5
	c0,0,2.133,2.125,0.754,7.375c-1.537,3.12-3.504,3-3.504,3S61.414,56,46.873,55.792c-14.541-0.208-18.791-18-18.791-18
	s-3.023-0.167-4.011-3.708c-0.989-3.542,1.178-6.375,1.178-6.375L24.082,21.75z"/>
<path fill="#303036" d="M80.79,32.333V65.75c0,0-1.708,0.375-2.458,1.188c0,0.875,0,3.688,0,3.688S71.957,73,72.082,81.688
	s7.688,13.25,13.063,13.188s13.438-4.125,13.125-13.25s-5.438-10.313-5.438-10.313v-9H90.27V57c0,0-1.5-2.063,0.063-3.875
	c0-2.125,0-3.875,0-3.875s-2.375-0.781-2.344-3.094c0.125-1.531,1.563-1.5,1.563-1.5v-0.813c0,0-1.344-1.094-1.375-1.875
	s1.813-2.125,1.75-2.781c-0.938-1.125-1.156-1.875-1.156-1.875s1.469-1.219,1.594-2.281s-5.5-5.5-5.5-5.5L80.79,32.333z"/>
<path fill="#303036" d="M66.395,80.5c-0.063-11.375,9.688-16.563,9.688-16.563v-3c0,0-9.563-5-15.625-4.563
	c-0.5,1.938-0.5,5.828-0.5,5.828s-6.375,4.609-12.688,4.359s-10.813-2.968-12.75-4.359c0.063-5.016-0.813-6.41-0.813-6.41
	S11.895,61.125,6.207,70C5.27,83.188,8.395,89.313,8.395,89.313s1.75,14.12,38.625,14.997c28.625-1.247,29.625-5.622,29.625-5.622
	S66.457,91.875,66.395,80.5z M47.27,98c-11.063-4.625-12.375-33.188-12.375-33.188c13.938,9.375,24.438,0,24.438,0
	S57.27,94.5,47.27,98z"/>
</svg>
