<?xml version="1.0" encoding="utf-8"?>
<!-- Generator: Adobe Illustrator 17.0.0, SVG Export Plug-In . SVG Version: 6.00 Build 0)  -->
<!DOCTYPE svg PUBLIC "-//W3C//DTD SVG 1.1//EN" "http://www.w3.org/Graphics/SVG/1.1/DTD/svg11.dtd">
<svg version="1.1" xmlns="http://www.w3.org/2000/svg" xmlns:xlink="http://www.w3.org/1999/xlink" x="0px" y="0px"
	 width="104.125px" height="104.351px" viewBox="0 0 104.125 104.351" enable-background="new 0 0 104.125 104.351"
	 xml:space="preserve">
<g id="Layer_1" display="none">
	
		<image display="inline" overflow="visible" width="512" height="512" xlink:href="../../../023_051_023_select_selection_area_region_cursor_arrow_tool-512.png"  transform="matrix(0.2729 0 0 0.2729 -17.3509 -17.305)">
	</image>
</g>
<g id="Layer_2">
	<g>
		<path fill="#303036" d="M91.067,73.501L57.93,46.703c-0.902-0.73-2.238-0.013-2.128,1.142l4.019,42.427
			c0.117,1.235,1.726,1.631,2.403,0.591l6.854-8.207l11.645,21.695l10.527-5.65L79.604,77.006l10.628-1.176
			C91.472,75.841,92.032,74.282,91.067,73.501z"/>
	</g>
	<rect x="11.25" fill="#303036" width="11.75" height="11.75"/>
	<rect x="34.5" fill="#303036" width="11.75" height="11.75"/>
	<rect x="57.892" fill="#303036" width="11.75" height="11.75"/>
	<rect x="81.125" fill="#303036" width="11.75" height="11.75"/>
	<rect x="81.125" y="23.375" fill="#303036" width="11.75" height="11.75"/>
	<rect x="81.125" y="46.688" fill="#303036" width="11.75" height="11.75"/>
	<rect x="11.25" y="46.688" fill="#303036" width="11.75" height="11.75"/>
	<rect x="11.25" y="23.375" fill="#303036" width="11.75" height="11.75"/>
	<rect x="11.25" y="69.875" fill="#303036" width="11.75" height="11.75"/>
	<rect x="34.5" y="69.875" fill="#303036" width="11.75" height="11.75"/>
</g>
</svg>
